REM MD5 08bc6ca221cba55e13c5b96edf2e0e7b
FILE "Official U.S. PlayStation Magazine Demo Disc 42 (USA).bin" BINARY
  TRACK 01 MODE2/2352
    INDEX 01 00:00:00
  TRACK 02 AUDIO
    INDEX 00 28:38:48
    INDEX 01 28:40:48
  TRACK 03 AUDIO
    INDEX 00 29:33:38
    INDEX 01 29:35:38
REM LEADOUT 29:41:34
